<svg width="610" height="140" xmlns="http://www.w3.org/2000/svg" version="1.1" xml:space="preserve">
 <g id="Layer_1">
  <title>Layer 1</title>
  <g stroke="null">
   <path stroke="null" fill="#161718" d="m594.36307,34.69907c2,0 3.9,0 5.9,0c5.3,0 5.7,0.7 3.8,5.4c-3.2,7.8 -6.3,15.5 -9.5,23.3c-7.2,17.4 -14.3,34.9 -21.5,52.3c-1.7,4 -3.5,7.9 -6,11.5c-5.1,7.3 -11.8,11.2 -21,11.1c-5.2,-0.1 -10.2,-0.9 -15,-2.8c-3.1,-1.2 -4.4,-2 -2.5,-5.6c0.8,-1.5 1.2,-3 1.9,-4.5c1.8,-4 2,-4 6.1,-2.6c1.8,0.7 3.7,1.3 5.6,1.6c6,0.9 10.5,-1.2 13.7,-6.5c2.1,-3.4 2.7,-6.4 0.8,-10.4c-10.2,-21.7 -20.1,-43.5 -30.2,-65.2c-0.6,-1.4 -1.3,-2.7 -1.8,-4.1c-0.8,-2.1 -0.2,-3.2 2,-3.4c1.9,-0.2 3.9,0 5.9,0c8.9,0 7,-0.9 10.4,6.8c6.8,15.4 13.6,30.9 20.4,46.3l1.4,2.9c0,0 0.4,0.9 1,0.9c0.6,0 1.4,0.1 2,-1c0.2,-0.4 0.5,-1.1 0.8,-1.7c0.1,-0.3 0.1,-0.5 0.2,-0.7c6.5,-16.4 12.8,-32.9 19.2,-49.3c1.8,-4.3 1.8,-4.2 6.4,-4.3zm-110.1,30.5c5.4,1.9 11,3.1 16.3,5.3c4.2,1.8 8.1,3.9 11.3,7.2c7.8,8 6.4,22.8 -1.9,30.4c-5.2,4.7 -11.4,7.1 -18.4,7.6c-11.3,0.7 -21.8,-1.9 -31.5,-7.8c-6.8,-4.1 -6.9,-4.5 -2.4,-10.7c3.1,-4.2 2.7,-6 9.1,-1.7c7.3,4.9 15.4,7.3 24.4,6.5c3.3,-0.3 6.2,-1.3 8.5,-3.7c3.8,-4 3.3,-9.2 -1.2,-12.4c-3.1,-2.2 -6.8,-3.2 -10.4,-4.3c-3.3,-1.1 -6.6,-1.9 -10,-2.9c-3.5,-1.1 -6.7,-2.6 -9.9,-4.3c-13.4,-7.4 -12.7,-23.7 -4.6,-32.3c5,-5.3 11.2,-8 18.4,-8.4c1.5,-0.1 3,0 4.5,0c9.3,-0.3 17.8,2.6 25.8,7c3.3,1.8 3.5,2.8 1.6,6.1c-1,1.8 -2.2,3.6 -3.3,5.4c-1,1.7 -2.5,2 -4.3,1.2c-1,-0.4 -1.9,-1 -2.8,-1.5c-5.2,-2.9 -10.8,-4.6 -16.7,-5.1c-3.4,-0.3 -6.9,0.4 -10,2.3c-5.2,3.2 -5.3,9 -0.4,12.5c2.5,1.7 5.2,2.7 7.9,3.6zm-71,2.1c-2.1,2.2 -2.1,2.4 -0.2,4.9c9.3,12.2 18.6,24.3 27.9,36.5c1,1.4 3,2.6 2,4.6c-0.9,2 -3.1,1.5 -4.8,1.5c-2.4,0 -4.8,-0.1 -7.2,0c-2.7,0.2 -4.5,-0.8 -6.1,-2.9c-6.4,-8.5 -13,-16.9 -19.5,-25.3c-5.3,-6.8 -4.5,-6.4 -8.6,-2.6c-2.8,2.7 -6.2,6.3 -7.5,8.1c-0.5,1 -1,1.9 -1.3,3c-0.7,2.8 -0.5,5.8 -0.5,5.8l0,3.8c0.1,1.6 0.1,3.2 0,4.8c0,0.5 0,1 -0.1,1.5c-0.1,2.9 -1,3.7 -3.8,3.9c-2.7,0.1 -5.4,0.1 -8.1,0c-3,-0.1 -3.5,-0.7 -3.6,-3.9c-0.1,-7.6 0,-15.3 0,-22.9c0,-9.7 0,-19.5 0,-29.2c0,-16.3 0,-32.6 0,-48.9c0,-1.2 0,-2.4 0,-3.6c0,-1.9 1,-2.8 2.7,-2.9c3.2,-0.1 6.3,-0.2 9.5,0c2.2,0.1 3.1,1.1 3.3,3.4c0.1,1 0,2.1 0,3.1c0,19.3 0,38.6 0,57.9l0,3.7c0.2,0.3 0.5,0.5 0.9,0.7c1.4,0.5 2.4,-1.5 3.4,-2.6c10.4,-10.8 20.9,-21.6 31.2,-32.5c1.7,-1.8 3.4,-2.7 5.9,-2.5c3.3,0.2 6.6,0.1 10,0c1.4,0 2.8,0.1 3.4,1.6c0.6,1.5 -0.7,2.2 -1.5,3c-5.8,5.9 -11.6,11.8 -17.4,17.6c-3.3,3.5 -6.6,6.9 -10,10.4zm-140.1,7.4c0,-22.2 16.6,-41.5 41.9,-41.5c26.4,0 42.5,21.3 41.6,41.7c0.6,19.6 -14.2,41.4 -41.8,41.5c-25.4,0 -41.7,-19.2 -41.7,-41.7zm67.9,0.4c0.7,-13.2 -10.3,-29.2 -28.1,-27.8c-9,0.7 -15.7,4.9 -20.2,12.4c-4,6.8 -5.1,14.3 -3.1,22.1c4.5,17.7 23,25.1 37.5,17.3c9.6,-5.1 13.5,-13.6 13.9,-24zm-165,-0.4c0,-20.8 15.7,-41.6 41.9,-41.6c26,0 42.1,20.3 41.7,41.6c0.1,21.8 -16.1,41.8 -42.3,41.6c-25.9,-0.1 -41.3,-20.5 -41.3,-41.6zm61.1,19c8.3,-9.5 9.3,-23.7 2.6,-34.3c-5,-7.9 -12.2,-12.2 -23.1,-12.1c-5.3,-0.3 -11,2 -16,6.4c-10.9,9.7 -12,28 -2.1,39.5c11,12.7 29.2,11.3 38.6,0.5zm-133,-57.1c6.1,-3.6 12.9,-5.5 19.8,-5.2c14.6,0.6 26.2,7.2 33.9,19.9c4.5,7.5 6.1,15.7 6,24.5c-0.1,9.8 -2.9,18.6 -9.3,26.1c-8,9.4 -18.3,14 -30.7,15c-18.3,1.5 -33.1,-5.9 -47.1,-16.3c-6.9,-5.1 -13.8,-10.1 -21.1,-14.7c-3.2,-2 -6.6,-3.6 -10.3,-4.5c-8.2,-2.2 -16.2,1 -20.6,8.2c-0.4,0.6 -0.8,1.3 -1.1,2c-0.9,2 -2.4,2.9 -4.7,2.8c-3.3,-0.1 -6.6,0 -10,0c-3.9,-0.1 -4.9,-1.5 -3.4,-5.1c5.2,-12.1 14.4,-19.8 27.3,-22.7c12,-2.7 23,-0.3 32.9,6.9c5.8,4.3 11.5,8.7 17.4,12.9c8,5.6 16.2,11.1 25.8,13.7c10.1,2.8 20,2.4 28.9,-4c5.2,-3.8 8.7,-8.7 9.7,-15.1c1.3,-8.5 0.4,-16.7 -5,-23.9c-10.2,-13.6 -30,-12.9 -39.3,1.4c-2.6,4.1 -4.3,8.5 -4,13.5c0.1,2.1 0.1,4.2 -0.1,6.3c-0.2,2.4 -1.7,3.4 -3.7,2.3c-3.7,-1.9 -7.2,-4.3 -10.5,-6.9c-1.7,-1.3 -1.4,-3.2 -1.4,-5c0,-10.3 0,-20.7 0,-31c0,-10.3 0,-20.7 0,-31c0,-4.7 0.3,-5 5.2,-5c1.5,0 3,0 4.5,0c5.1,0.1 5.9,0.8 5.9,6.1c0,6.9 0,13.8 0,20.7c0,1.8 0,3.6 0,5.4c0.3,5.4 0.3,5.4 5,2.7z" class="st0" id="svg_2"/>
  </g>
 </g>

</svg>